# Blender 3.5.1
# www.blender.org
mtllib gun.mtl
o Gun
v -1.735960 0.999737 -0.004417
v -1.735960 0.999735 2.320541
v -1.735960 2.275989 -0.004416
v -1.735960 2.275988 2.320542
v 0.347605 0.999735 2.320541
v 0.932656 0.999735 1.735490
v 0.932656 0.999736 0.580634
v 0.347605 0.999737 -0.004417
v 0.932656 2.275988 1.735490
v 0.347605 2.275988 2.320541
v 0.347604 2.275989 -0.004416
v 0.932655 2.275989 0.580635
v 1.606933 1.642416 1.468452
v 5.610018 1.642417 1.468452
v 1.606933 1.868273 1.377541
v 5.610018 1.868273 1.377541
v 1.606933 1.961826 1.158062
v 5.610018 1.961826 1.158062
v 1.606933 1.868273 0.938583
v 5.610018 1.868273 0.938583
v 1.606933 1.642417 0.847672
v 5.610018 1.642417 0.847672
v 1.606933 1.416561 0.938583
v 5.610018 1.416561 0.938583
v 1.606933 1.323008 1.158062
v 5.610018 1.323008 1.158062
v 1.606933 1.416560 1.377541
v 5.610018 1.416560 1.377541
v 0.932656 1.198517 1.555617
v 0.932656 1.198517 0.760508
v 0.932656 2.077207 1.555617
v 0.932656 2.077208 0.760508
v 2.052117 1.198517 1.555617
v 2.052117 1.198517 0.760508
v 2.052118 2.077207 1.555617
v 2.052117 2.077208 0.760508
v -0.920302 2.744657 0.590352
v -0.920301 2.744656 1.725775
v -0.070596 2.744656 1.725774
v 0.215121 2.744656 1.440057
v 0.215121 2.744657 0.876068
v -0.070596 2.744657 0.590351
v -2.603396 1.327964 0.488506
v -2.603396 1.327963 1.827619
v -2.603397 2.275989 0.488506
v -2.603396 2.275988 1.827620
v -1.735960 0.999736 1.158062
v -1.735960 2.703276 1.158063
v -0.920302 2.744657 1.158063
v -2.603396 1.327963 1.158062
v -2.603397 2.275989 1.158063
v -0.926315 1.590026 2.553133
v -0.926315 1.590026 2.198735
v -1.160071 1.009292 2.553133
v -1.160071 1.009292 2.198735
v -0.926315 0.428558 2.553133
v -0.926315 0.428558 2.198735
v -0.361978 0.188010 2.553133
v -0.361978 0.188010 2.198735
v 0.202358 0.428558 2.553133
v 0.202358 0.428558 2.198735
v 0.436114 1.009292 2.553133
v 0.436114 1.009292 2.198735
v 0.202358 1.590026 2.553133
v 0.202358 1.590026 2.198735
v -0.361978 1.830574 2.553133
v -0.361978 1.830574 2.198735
v -0.926315 1.590026 0.140801
v -0.926315 1.590027 -0.213596
v -1.160071 1.009293 0.140801
v -1.160071 1.009293 -0.213596
v -0.926315 0.428559 0.140801
v -0.926315 0.428559 -0.213597
v -0.361978 0.188011 0.140801
v -0.361978 0.188011 -0.213597
v 0.202358 0.428559 0.140801
v 0.202358 0.428559 -0.213597
v 0.436114 1.009293 0.140801
v 0.436114 1.009293 -0.213596
v 0.202358 1.590026 0.140801
v 0.202358 1.590027 -0.213596
v -0.361978 1.830575 0.140801
v -0.361978 1.830575 -0.213596
vn -0.0000 -1.0000 -0.0000
vn -0.0000 -0.0000 1.0000
vn -0.3539 -0.9353 -0.0000
vn -0.0000 -0.0000 -1.0000
vn 0.7071 -0.0000 0.7071
vn 0.7071 -0.0000 -0.7071
vn -0.0000 0.3734 0.9277
vn -0.0000 0.9199 0.3921
vn -0.0000 0.9199 -0.3921
vn -0.0000 0.3734 -0.9277
vn -0.0000 -0.3734 -0.9277
vn -0.0000 -0.9199 -0.3921
vn 1.0000 -0.0000 -0.0000
vn -0.0000 -0.9199 0.3921
vn -0.0000 -0.3734 0.9277
vn -1.0000 -0.0000 -0.0000
vn -0.0000 1.0000 -0.0000
vn -0.2112 0.9489 -0.2343
vn 0.3872 0.8368 -0.3872
vn -0.0000 0.7855 -0.6189
vn 0.3872 0.8368 0.3872
vn 0.5468 0.8372 -0.0000
vn -0.0000 0.7855 0.6189
vn -0.2912 0.9317 0.2173
vn -0.4941 -0.0000 -0.8694
vn -0.4941 -0.0000 0.8694
vn -0.2912 0.9317 -0.2173
vn -0.2112 0.9489 0.2343
vn 0.3921 0.9199 -0.0000
vn 0.9277 -0.3734 -0.0000
vn -0.3921 0.9199 -0.0000
vn -0.9277 -0.3734 -0.0000
vn 0.9277 0.3734 -0.0000
vn -0.3921 -0.9199 -0.0000
vn 0.3921 -0.9199 -0.0000
vn -0.9277 0.3734 -0.0000
s 1
usemtl Material.002
f 13//7 14//7 16//7 15//7
f 15//8 16//8 18//8 17//8
f 17//9 18//9 20//9 19//9
f 19//10 20//10 22//10 21//10
f 21//11 22//11 24//11 23//11
f 23//12 24//12 26//12 25//12
f 16//13 14//13 28//13 26//13 24//13 22//13 20//13 18//13
f 25//14 26//14 28//14 27//14
f 27//15 28//15 14//15 13//15
f 13//16 15//16 17//16 19//16 21//16 23//16 25//16 27//16
f 67//29 66//29 64//29 65//29
f 63//30 62//30 60//30 61//30
f 53//31 52//31 66//31 67//31
f 57//32 56//32 54//32 55//32
f 65//33 64//33 62//33 63//33
f 62//2 64//2 66//2 52//2 54//2 56//2 58//2 60//2
f 59//34 58//34 56//34 57//34
f 61//35 60//35 58//35 59//35
f 67//4 65//4 63//4 61//4 59//4 57//4 55//4 53//4
f 55//36 54//36 52//36 53//36
f 83//29 82//29 80//29 81//29
f 79//30 78//30 76//30 77//30
f 69//31 68//31 82//31 83//31
f 73//32 72//32 70//32 71//32
f 81//33 80//33 78//33 79//33
f 78//2 80//2 82//2 68//2 70//2 72//2 74//2 76//2
f 75//34 74//34 72//34 73//34
f 77//35 76//35 74//35 75//35
f 83//4 81//4 79//4 77//4 75//4 73//4 71//4 69//4
f 71//36 70//36 68//36 69//36
usemtl Material.003
f 5//1 2//1 47//1 1//1 8//1 7//1 6//1
f 10//2 4//2 2//2 5//2
f 47//3 50//3 43//3 1//3
f 8//4 1//4 3//4 11//4
f 5//5 6//5 9//5 10//5
f 7//6 8//6 11//6 12//6
f 12//13 32//13 30//13 7//13
f 6//13 29//13 31//13 9//13
f 7//13 30//13 29//13 6//13
f 9//13 31//13 32//13 12//13
f 30//1 34//1 33//1 29//1
f 29//2 33//2 35//2 31//2
f 31//17 35//17 36//17 32//17
f 32//4 36//4 34//4 30//4
f 35//13 33//13 34//13 36//13
f 40//17 41//17 42//17 37//17 49//17 38//17 39//17
f 48//18 49//18 37//18 3//18
f 11//19 42//19 41//19 12//19
f 3//20 37//20 42//20 11//20
f 9//21 40//21 39//21 10//21
f 12//22 41//22 40//22 9//22
f 10//23 39//23 38//23 4//23
f 50//16 44//16 46//16 51//16
f 48//24 51//24 46//24 4//24
f 1//25 43//25 45//25 3//25
f 4//26 46//26 44//26 2//26
f 3//27 45//27 51//27 48//27
f 43//16 50//16 51//16 45//16
f 4//28 38//28 49//28 48//28
f 2//3 44//3 50//3 47//3
