# Blender 3.5.1
# www.blender.org
mtllib tower.mtl
o Cylinder
v -0.367961 0.665575 2.962752
v -0.384111 0.270483 2.992142
v 0.914649 0.628071 2.454178
v 0.914649 0.270483 2.454178
v 1.452613 0.628071 1.155418
v 1.452613 0.270484 1.155418
v 0.914649 0.628072 -0.143342
v 0.914649 0.270484 -0.143342
v -0.382656 0.665576 -0.666611
v -0.384111 0.270484 -0.681306
v -1.682871 0.628072 -0.143342
v -1.682871 0.270484 -0.143342
v -2.220835 0.628071 1.155418
v -2.220835 0.270484 1.155418
v -1.682871 0.628071 2.454178
v -1.682871 0.270483 2.454178
v -0.118144 0.665575 1.805195
v 0.341318 0.665575 1.614880
v 0.531634 0.665576 1.155418
v 0.341318 0.665576 0.695956
v -0.118144 0.665576 0.505641
v -0.577606 0.665576 0.695956
v -0.767921 0.665576 1.155418
v -0.577606 0.665575 1.614880
v -0.118144 0.665575 1.805195
v 0.341318 0.665575 1.614880
v 0.531634 0.665576 1.155418
v 0.341318 0.665576 0.695956
v -0.118144 0.665576 0.505641
v -0.577606 0.665576 0.695956
v -0.767921 0.665576 1.155418
v -0.577606 0.665575 1.614880
v -0.118144 1.607556 1.805195
v 0.341318 1.607556 1.614880
v 0.531634 1.607556 1.155418
v 0.341318 1.607556 0.695956
v -0.118144 1.607556 0.505641
v -0.577606 1.607556 0.695956
v -0.767921 1.607556 1.155418
v -0.577606 1.607556 1.614880
v -0.384111 -0.002212 2.096338
v 0.281220 -0.002212 1.820749
v 0.556809 -0.002212 1.155418
v 0.281220 -0.002212 0.490087
v -0.384111 -0.002212 0.214498
v -1.049442 -0.002212 0.490087
v -1.325031 -0.002212 1.155418
v -1.049442 -0.002212 1.820749
v -0.384111 -0.368776 2.493581
v 0.562113 -0.368776 2.101642
v 0.954052 -0.368776 1.155418
v 0.562113 -0.368775 0.209194
v -0.384111 -0.368775 -0.182745
v -1.330335 -0.368775 0.209194
v -1.722274 -0.368776 1.155418
v -1.330335 -0.368776 2.101642
v -0.384111 -0.731395 4.113825
v 1.707799 -0.731395 3.247328
v 2.574296 -0.731394 1.155417
v 1.707799 -0.731393 -0.936492
v -0.384111 -0.731393 -1.802989
v -2.476021 -0.731393 -0.936491
v -3.342518 -0.731394 1.155418
v -2.476021 -0.731395 3.247327
v -0.384111 -1.674204 4.113825
v 1.707799 -1.674204 3.247328
v 2.574296 -1.674203 1.155417
v 1.707799 -1.674202 -0.936492
v -0.384111 -1.674202 -1.802990
v -2.476021 -1.674202 -0.936492
v -3.342518 -1.674203 1.155418
v -2.476021 -1.674204 3.247327
vn 0.3759 0.0281 0.9262
vn 0.9239 -0.0000 0.3827
vn 0.9239 -0.0000 -0.3827
vn 0.3785 0.0173 -0.9254
vn -0.3782 0.0188 -0.9255
vn -0.9239 -0.0000 -0.3827
vn -0.2891 -0.9498 0.1198
vn -0.9239 -0.0000 0.3827
vn -0.3719 0.0442 0.9272
vn 0.0407 0.9990 -0.0169
vn -0.0000 -1.0000 -0.0000
vn -0.0258 0.9996 -0.0107
vn 0.0272 0.9995 -0.0145
vn -0.0258 0.9996 0.0107
vn 0.0407 0.9990 0.0169
vn -0.0226 0.9997 -0.0032
vn -0.0225 0.9997 0.0035
vn 0.0273 0.9995 0.0144
vn 0.3827 -0.0000 0.9239
vn -0.0000 1.0000 -0.0000
vn -0.3827 -0.0000 0.9239
vn 0.3827 -0.0000 -0.9239
vn -0.3827 -0.0000 -0.9239
vn 0.2704 0.7075 -0.6529
vn 0.2891 -0.9498 0.1198
vn -0.1198 -0.9498 -0.2891
vn -0.1198 -0.9498 0.2891
vn 0.1198 -0.9498 0.2891
vn 0.2891 -0.9498 -0.1198
vn -0.2891 -0.9498 -0.1198
vn 0.1198 -0.9498 -0.2891
vn -0.0901 0.9719 0.2175
vn 0.6529 0.7075 0.2704
vn -0.6529 0.7075 0.2704
vn -0.2704 0.7075 -0.6529
vn 0.6529 0.7075 -0.2704
vn 0.2704 0.7075 0.6529
vn -0.2704 0.7075 0.6529
vn -0.6529 0.7075 -0.2704
vn -0.2175 0.9719 -0.0901
vn 0.0901 0.9719 -0.2175
vn 0.2175 0.9719 0.0901
vn -0.2175 0.9719 0.0901
vn -0.0901 0.9719 -0.2175
vn 0.2175 0.9719 -0.0901
vn 0.0901 0.9719 0.2175
s 1
usemtl Material.004
f 1//1 2//1 4//1 3//1
f 3//2 4//2 6//2 5//2
f 5//3 6//3 8//3 7//3
f 7//4 8//4 10//4 9//4
f 9//5 10//5 12//5 11//5
f 11//6 12//6 14//6 13//6
f 16//7 14//7 47//7 48//7
f 13//8 14//8 16//8 15//8
f 15//9 16//9 2//9 1//9
f 5//10 7//10 20//10 19//10
f 22//11 23//11 31//11 30//11
f 11//12 13//12 23//12 22//12
f 7//13 9//13 21//13 20//13
f 13//14 15//14 24//14 23//14
f 3//15 5//15 19//15 18//15
f 9//16 11//16 22//16 21//16
f 15//17 1//17 17//17 24//17
f 1//18 3//18 18//18 17//18
f 25//19 26//19 34//19 33//19
f 20//11 21//11 29//11 28//11
f 18//11 19//11 27//11 26//11
f 23//11 24//11 32//11 31//11
f 21//11 22//11 30//11 29//11
f 19//11 20//11 28//11 27//11
f 17//11 18//11 26//11 25//11
f 24//11 17//11 25//11 32//11
f 33//20 34//20 35//20 36//20 37//20 38//20 39//20 40//20
f 32//21 25//21 33//21 40//21
f 30//6 31//6 39//6 38//6
f 28//22 29//22 37//22 36//22
f 26//2 27//2 35//2 34//2
f 31//8 32//8 40//8 39//8
f 29//23 30//23 38//23 37//23
f 27//3 28//3 36//3 35//3
f 45//24 44//24 52//24 53//24
f 6//25 4//25 42//25 43//25
f 12//26 10//26 45//26 46//26
f 2//27 16//27 48//27 41//27
f 4//28 2//28 41//28 42//28
f 8//29 6//29 43//29 44//29
f 14//30 12//30 46//30 47//30
f 10//31 8//31 44//31 45//31
f 49//32 56//32 64//32 57//32
f 43//33 42//33 50//33 51//33
f 48//34 47//34 55//34 56//34
f 46//35 45//35 53//35 54//35
f 44//36 43//36 51//36 52//36
f 42//37 41//37 49//37 50//37
f 41//38 48//38 56//38 49//38
f 47//39 46//39 54//39 55//39
f 62//23 61//23 69//23 70//23
f 55//40 54//40 62//40 63//40
f 53//41 52//41 60//41 61//41
f 51//42 50//42 58//42 59//42
f 56//43 55//43 63//43 64//43
f 54//44 53//44 61//44 62//44
f 52//45 51//45 59//45 60//45
f 50//46 49//46 57//46 58//46
f 66//11 65//11 72//11 71//11 70//11 69//11 68//11 67//11
f 60//3 59//3 67//3 68//3
f 58//19 57//19 65//19 66//19
f 57//21 64//21 72//21 65//21
f 63//6 62//6 70//6 71//6
f 61//22 60//22 68//22 69//22
f 59//2 58//2 66//2 67//2
f 64//8 63//8 71//8 72//8
